<svg width="18" height="18" viewBox="0 0 18 18" fill="none" xmlns="http://www.w3.org/2000/svg">
<path d="M8.76562 0C11.1758 0 13.3984 0.984375 14.9414 2.53125C16.5469 4.13672 17.5352 6.29687 17.5352 8.70703C17.5352 11.1172 16.5469 13.2773 14.9414 14.8828C13.3359 16.4883 11.1758 17.4141 8.76562 17.4141C6.35938 17.4141 4.13672 16.4258 2.59375 14.8828C0.988281 13.2773 0 11.1172 0 8.70703C0 6.29687 0.988281 4.13672 2.59375 2.53125C4.13672 0.984375 6.35938 0 8.76562 0ZM14.1992 3.33203C12.8398 1.97266 10.8672 1.10938 8.76562 1.10938C6.66797 1.10938 4.75391 1.97266 3.33203 3.33203C1.97266 4.69141 1.10938 6.60547 1.10938 8.76953C1.10938 10.8672 1.97266 12.7852 3.33203 14.2031C4.69141 15.5625 6.66797 16.4258 8.76562 16.4258C10.8672 16.4258 12.7813 15.5625 14.1992 14.2031C15.5586 12.8438 16.4219 10.9297 16.4219 8.76953C16.4219 6.60547 15.5586 4.69141 14.1992 3.33203ZM3.02344 14.0195C3.02344 14.3281 2.77734 14.5742 2.46875 14.5742C2.16016 14.5742 1.91406 14.3281 1.91406 14.0195V13.0312C1.91406 12.4727 2.16016 11.918 2.53125 11.5469C2.90234 11.1758 3.45703 10.9297 4.01172 10.9297H13.457C14.0156 10.9297 14.5703 11.1758 14.9414 11.5469C15.3125 11.918 15.5586 12.4727 15.5586 13.0312V14.0195C15.5586 14.3281 15.3125 14.5742 15.0039 14.5742C14.6953 14.5742 14.4453 14.3281 14.4453 14.0195V13.0312C14.4453 12.7852 14.3242 12.4727 14.1367 12.2891C13.9531 12.1055 13.707 11.9805 13.3984 11.9805H4.01172C3.76562 11.9805 3.45703 12.1055 3.26953 12.2891C3.08594 12.4727 2.96094 12.7227 2.96094 13.0312V14.0195H3.02344ZM8.76562 2.59375C9.81641 2.59375 10.7422 3.02344 11.4844 3.70312C12.1602 4.38281 12.5938 5.37109 12.5938 6.42188C12.5938 7.47266 12.1602 8.46094 11.4844 9.14062H11.4219C10.7422 9.82031 9.81641 10.25 8.76562 10.25C7.71484 10.25 6.78906 9.82031 6.05078 9.14062C5.37109 8.46094 4.9375 7.47266 4.9375 6.42188C4.9375 5.37109 5.37109 4.44531 6.05078 3.70312C6.73047 3.02344 7.71484 2.59375 8.76562 2.59375ZM10.6797 4.50781C10.1875 4.01172 9.50781 3.70312 8.76562 3.70312C8.02344 3.70312 7.34766 4.01172 6.85156 4.50781C6.35937 5 6.05078 5.67969 6.05078 6.42188C6.05078 7.16406 6.35937 7.84375 6.85156 8.33594C7.34766 8.83203 8.02344 9.14062 8.76562 9.14062C9.50781 9.14062 10.1875 8.83203 10.6797 8.39844C11.1758 7.90234 11.4844 7.22266 11.4844 6.48438C11.4844 5.67969 11.1758 5 10.6797 4.50781Z" fill="#443028"/>
</svg>
