<svg width="156" height="15" viewBox="0 0 156 15" fill="none" xmlns="http://www.w3.org/2000/svg">
<path fill-rule="evenodd" clip-rule="evenodd" d="M5.63281 12.7344H1V6.86719L7.30078 1L13.5977 6.74609V12.6133H8.96484V9.58594C8.96484 8.66016 8.22656 7.85547 7.30078 7.85547C6.37109 7.85547 5.63281 8.66016 5.63281 9.58594V12.7344Z" fill="#FDF4ED"/>
<path d="M48.5938 12.6094C48.7773 12.793 48.7773 13.1641 48.5938 13.3516C48.4062 13.5352 48.0391 13.5352 47.8516 13.3516L44.2695 9.76953C44.0859 9.58203 44.0859 9.21094 44.2695 9.02734C44.457 8.83984 44.8281 8.83984 45.0117 9.02734L48.5938 12.6094ZM77.1797 3.96094C77.1797 3.65234 77.4258 3.40625 77.7344 3.40625C78.043 3.40625 78.293 3.65234 78.293 3.96094V9.95312C78.293 10.2617 78.043 10.5078 77.7344 10.5078C77.4258 10.5078 77.1797 10.2617 77.1797 9.95312V3.96094ZM74.7109 7.54297C74.4023 7.54297 74.1562 7.29688 74.1562 6.98828C74.1562 6.67969 74.4023 6.43359 74.7109 6.43359H80.6992C81.0078 6.43359 81.2539 6.67969 81.2539 6.98828C81.2539 7.29688 81.0078 7.54297 80.6992 7.54297H74.7109ZM5.25 13.3516H0.617188C0.308594 13.3516 0.0625 13.1016 0.0625 12.793V6.92578C0.0625 6.74219 0.125 6.61719 0.25 6.49609L6.48438 0.6875C6.66797 0.503906 7.03906 0.503906 7.22656 0.6875L13.5234 6.43359C13.6445 6.55469 13.707 6.67969 13.707 6.80469V12.6719C13.707 12.9805 13.4609 13.2266 13.1523 13.2266H8.52344C8.21484 13.2266 7.96484 12.9805 7.96484 12.6719V9.64453C7.96484 9.33594 7.84375 9.02734 7.65625 8.78125C7.47266 8.59375 7.16406 8.47266 6.91797 8.47266C6.60938 8.47266 6.35938 8.59375 6.17578 8.78125C5.98828 8.96484 5.86719 9.27344 5.86719 9.64453V12.793C5.74219 13.1016 5.49609 13.3516 5.25 13.3516ZM1.11328 12.2383H4.63281V9.64453C4.63281 9.02734 4.87891 8.47266 5.25 8.03906C5.62109 7.60547 6.17578 7.35938 6.79297 7.35938C7.41016 7.35938 7.96484 7.60547 8.33594 8.03906C8.70703 8.47266 8.95312 9.02734 8.95312 9.64453V12.1758H12.4727V7.11328L6.73047 1.86328L0.988281 7.17188L1.11328 12.2383ZM41.3672 0.566406C42.8516 0.566406 44.1484 1.18359 45.1367 2.10938C46.125 3.09766 46.6797 4.39453 46.6797 5.875C46.6797 7.35938 46.0625 8.65625 45.1367 9.64453C44.1484 10.6328 42.8516 11.1875 41.3672 11.1875C39.8867 11.1875 38.5898 10.5703 37.6016 9.64453C36.6133 8.65625 36.0586 7.35938 36.0586 5.875C36.0586 4.39453 36.6758 3.09766 37.6016 2.10938C38.5898 1.18359 39.9492 0.566406 41.3672 0.566406ZM44.3945 2.91016C43.6523 2.17188 42.543 1.67578 41.4297 1.67578C40.2578 1.67578 39.207 2.17188 38.4688 2.91016C37.7266 3.65234 37.2305 4.76562 37.2305 5.875C37.2305 7.05078 37.7266 8.10156 38.4688 8.83984C39.207 9.58203 40.3203 10.0781 41.4297 10.0781C42.6055 10.0781 43.6523 9.58203 44.3945 8.83984C45.1367 8.10156 45.6289 6.98828 45.6289 5.875C45.6289 4.70312 45.1367 3.65234 44.3945 2.91016ZM74.1562 0.0078125H81.4414C82.4297 0.0078125 83.293 0.378906 83.9102 1.05859C84.5273 1.67578 84.9609 2.60156 84.9609 3.53125V10.8164C84.9609 11.8047 84.5898 12.6719 83.9102 13.2891C83.2305 13.9063 82.3672 14.3398 81.4414 14.3398H74.1562C73.168 14.3398 72.3008 13.9688 71.6836 13.2891C71.0664 12.6719 70.6367 11.7461 70.6367 10.8164V3.53125C70.6367 2.54297 71.0039 1.67578 71.6836 1.05859H71.7461C72.3008 0.378906 73.168 0.0078125 74.1562 0.0078125ZM81.4414 1.12109H74.1562C73.4766 1.12109 72.918 1.36719 72.4883 1.80078C72.0547 2.23438 71.7461 2.85156 71.7461 3.53125V10.8164C71.7461 11.4961 71.9922 12.1133 72.4883 12.5469C72.918 12.9805 73.5352 13.2891 74.2148 13.2891H81.5039C82.1797 13.2891 82.7969 13.043 83.2305 12.5469C83.6641 12.1133 83.9727 11.4961 83.9727 10.8164V3.53125C83.9727 2.85156 83.7266 2.23438 83.2305 1.80078C82.7383 1.36719 82.1211 1.12109 81.4414 1.12109ZM112.992 12.8555C111.078 11.6211 109.656 10.3867 108.605 9.21094C107.559 7.97656 106.941 6.74219 106.754 5.56641C106.57 4.33203 106.816 3.34375 107.309 2.60156C107.68 1.98438 108.238 1.61328 108.855 1.36719C109.473 1.12109 110.152 1.05859 110.828 1.18359C111.695 1.30469 112.559 1.80078 113.301 2.54297C114.039 1.80078 114.906 1.36719 115.77 1.18359C116.449 1.05859 117.129 1.12109 117.746 1.36719C118.363 1.61328 118.918 2.04688 119.289 2.60156C119.781 3.34375 119.969 4.33203 119.844 5.56641C119.66 6.74219 119.043 7.97656 117.992 9.21094C116.941 10.3867 115.523 11.6211 113.609 12.8555C113.363 12.9805 113.176 12.9805 112.992 12.8555ZM109.41 8.47266C110.336 9.51953 111.633 10.6328 113.301 11.7461C114.965 10.6328 116.262 9.51953 117.188 8.47266C118.117 7.42188 118.672 6.37109 118.793 5.38281C118.918 4.45703 118.793 3.65234 118.426 3.16016C118.176 2.78906 117.809 2.48047 117.438 2.35547C117.004 2.17187 116.512 2.17188 116.016 2.23438C115.215 2.35547 114.41 2.85156 113.73 3.65234C113.73 3.71484 113.672 3.71484 113.672 3.71484C113.422 3.89844 113.113 3.83984 112.93 3.65234C112.25 2.85156 111.449 2.35547 110.645 2.23438C110.152 2.17188 109.656 2.17187 109.223 2.35547C108.793 2.54297 108.484 2.78906 108.238 3.16016C107.867 3.71484 107.742 4.45703 107.867 5.38281C107.93 6.37109 108.484 7.35938 109.41 8.47266ZM142.75 13.5977C142.75 13.9063 142.504 14.1523 142.195 14.1523C141.887 14.1523 141.641 13.9063 141.641 13.5977V11.3125C141.641 10.7578 141.887 10.1992 142.258 9.82812C142.629 9.46094 143.184 9.21094 143.738 9.21094H153.188C153.742 9.21094 154.297 9.46094 154.668 9.82812C155.039 10.1992 155.285 10.7578 155.285 11.3125V13.5977C155.285 13.9063 155.039 14.1523 154.73 14.1523C154.422 14.1523 154.172 13.9063 154.172 13.5977V11.3125C154.172 11.0664 154.051 10.7578 153.863 10.5703C153.68 10.3867 153.434 10.2617 153.125 10.2617H143.676C143.43 10.2617 143.121 10.3867 142.938 10.5703C142.75 10.7578 142.629 11.0039 142.629 11.3125L142.75 13.5977ZM148.492 0.9375C149.543 0.9375 150.469 1.36719 151.211 2.04688C151.891 2.72656 152.32 3.71484 152.32 4.76562C152.32 5.81641 151.891 6.74219 151.211 7.48438C150.531 8.16016 149.543 8.59375 148.492 8.59375C147.445 8.59375 146.516 8.16016 145.777 7.48438C145.098 6.80469 144.664 5.81641 144.664 4.76562C144.664 3.71484 145.098 2.78906 145.777 2.04688C146.457 1.36719 147.445 0.9375 148.492 0.9375ZM150.406 2.78906C149.914 2.29297 149.234 1.98438 148.492 1.98438C147.754 1.98438 147.074 2.29297 146.578 2.78906C146.086 3.28125 145.777 3.96094 145.777 4.70312C145.777 5.44531 146.086 6.125 146.578 6.61719C147.074 7.11328 147.754 7.42188 148.492 7.42188C149.234 7.42188 149.914 7.11328 150.406 6.61719C150.902 6.125 151.211 5.44531 151.211 4.70312C151.211 3.96094 150.902 3.28125 150.406 2.78906Z" fill="#443028"/>
</svg>
