<svg width="240" height="334" viewBox="0 0 240 334" fill="none" xmlns="http://www.w3.org/2000/svg">
<path d="M239.293 324.648V0H0.496094V44.0586V56.5V65.375V299.711L48.7422 307.449L74.8164 318.715L95.4648 318.188L103.273 314.398L111.664 313.281L114.922 309.574L123.656 307.449L131.863 313.812C131.863 313.812 144.305 316.594 144.703 316.727C145.098 316.859 158.336 324.816 158.336 324.816L186.656 325.605L207.043 323.488L215.246 326.145C215.246 326.145 225.039 326.008 225.441 326.137C225.727 326.234 234.301 325.215 239.293 324.648Z" fill="#FDF4ED"/>
<path d="M0.496094 298.727V305.82C2.66797 305.613 4.72266 308.375 7.70703 307.668C10.8789 306.918 13.5313 308.816 17.2852 309.281C21.0391 309.746 20.9922 311.387 23.1055 311.801C25.2227 312.219 29.2383 311.359 31.457 311.246C33.6797 311.133 39.1289 312.758 42.9336 312.961C46.7422 313.156 48.1211 314.531 49.1289 315.004C50.1328 315.477 54.3164 316.574 56.375 315.883C58.4336 315.184 63.5234 320.043 65.4805 319.875C67.4375 319.711 71.1484 323.195 72.418 323.719C73.6875 324.242 75.4375 326.516 77.5547 326.93C79.6719 327.348 82.043 325.062 82.043 325.062L89.2891 325.941C89.2891 325.941 93.4648 325.664 95.0469 324.602C96.6289 323.539 102.445 323.305 102.445 323.305C102.445 323.305 102.445 323.305 103.762 320.812C105.074 318.32 106.82 319.215 108.246 318.949C109.672 318.68 115.688 314.637 115.688 314.637L126.32 316.457L129.445 318.723L140.977 320.168C140.977 320.168 143.57 320.953 144.418 322.223C145.27 323.492 150.301 327.234 150.301 327.234C150.301 327.234 153.586 328.703 154.645 328.914C155.703 329.121 158.777 331.652 158.777 331.652C158.777 331.652 164.113 331.055 165.434 331.312C166.758 331.578 170.68 334 170.68 334L174.852 332.344C174.852 332.344 177.863 332.391 179.715 332.754C181.566 333.117 184.469 330.938 184.469 330.938L190.445 331.289L193.875 330.59C193.875 330.59 199.008 331.051 201.016 330.621C203.023 330.191 205.297 329.812 205.297 329.812L209.836 329.059L213.016 331.062L216.559 331.211C216.559 331.211 223.75 330.977 225.441 330.758C227.129 330.539 237.598 330.402 237.598 330.402C237.598 330.402 238.293 330.195 239.293 329.887V321.449C239.187 321.473 239.129 321.492 239.129 321.492C239.129 321.492 234.566 320.93 231.504 321.148C228.438 321.371 221.996 324.781 218.934 325C215.867 325.223 207.66 322.234 205.016 321.711C202.371 321.191 199.844 324.27 194.715 323.809C189.586 323.348 183.453 323.789 178.004 322.164C172.551 320.543 174.512 321.754 172.402 322.715C170.289 323.672 159.609 323.492 157.234 322.996C154.859 322.496 149.758 317.699 147.32 316.121C144.883 314.539 139.91 313.285 136.051 313.352C132.191 313.418 129.484 310.406 126.672 306.551C123.859 302.695 120.438 307.523 116.734 306.793C113.031 306.062 114.074 311.773 110.031 311.523C105.992 311.277 100.418 314.309 97.4102 315.641C94.4023 316.977 86.5742 316.258 83.3477 315.898C80.1211 315.535 76.1094 316.395 74.0938 315.449C72.082 314.5 65.1523 312.035 62.7188 311.832C60.2852 311.629 55.1992 308.148 53.1289 306.09C51.0625 304.035 44.3984 302.996 41.2227 302.371C38.0508 301.746 31.8047 299.965 29.6406 301.188C27.4766 302.414 26.5234 301.676 23.2969 301.312C20.0703 300.953 19.1758 301.328 17.4844 301.543C16.3867 301.687 7.65234 300.09 0.496094 298.727Z" fill="#FFFAEF"/>
</svg>
