<svg width="11" height="4" viewBox="0 0 11 4" fill="none" xmlns="http://www.w3.org/2000/svg">
<path d="M0.617188 1.96094C0.617188 1.77344 0.675781 1.52734 0.800781 1.34375C0.984374 1.03516 1.35547 0.910156 1.66406 0.910156C1.97266 0.910156 2.34375 1.03516 2.53125 1.34375C2.65234 1.52734 2.71484 1.77344 2.71484 1.96094C2.71484 2.33203 2.53125 2.76172 2.16016 2.94922C1.97266 3.01172 1.85156 3.07031 1.66406 3.07031C1.48047 3.07031 1.29297 3.07031 1.17188 2.94922C0.800782 2.76172 0.617188 2.39062 0.617188 1.96094ZM8.21094 2.02344C8.21094 1.83594 8.27344 1.58984 8.39453 1.40234C8.58203 1.09375 8.94922 0.972656 9.25781 0.972656C9.56641 0.972656 9.9375 1.09375 10.125 1.40234C10.2461 1.58984 10.3086 1.77344 10.3086 2.02344C10.3086 2.39062 10.125 2.82422 9.75391 3.01172C9.56641 3.07031 9.44531 3.13281 9.25781 3.13281C9.07422 3.13281 8.89062 3.13281 8.76562 3.01172C8.39453 2.82422 8.21094 2.45312 8.21094 2.02344ZM4.50391 2.02344C4.50391 1.77344 4.56641 1.58984 4.69141 1.40234C4.875 1.09375 5.24609 0.972656 5.61719 0.972656C5.92578 0.972656 6.23437 1.09375 6.48047 1.40234C6.60547 1.58984 6.66797 1.83594 6.66797 2.02344C6.66797 2.39062 6.48047 2.82422 6.10938 3.01172C5.92578 3.07031 5.80078 3.13281 5.61719 3.13281C5.42969 3.13281 5.24609 3.13281 5.12109 3.01172C4.69141 2.82422 4.50391 2.39062 4.50391 2.02344Z" fill="#443028"/>
</svg>
