<svg width="299" height="23" viewBox="0 0 299 23" fill="none" xmlns="http://www.w3.org/2000/svg">
<path d="M297 0H0L2.5 3.5L14 6L26.5 7.5L51.5 16L74.5 7.5L79 10.5H86.5L94 16L105.5 18.5H193L205.5 14L220.5 7.5L231.5 10.5L247.5 14L266 6L297 3.5V0Z" fill="#FDF4ED"/>
<path d="M298.168 0V4.4375C296.813 4.30859 295.523 6.03516 293.656 5.59375C291.672 5.125 290.016 6.3125 287.664 6.60156C285.316 6.89453 285.348 7.91797 284.023 8.17969C282.699 8.44141 280.188 7.90234 278.797 7.83203C277.406 7.76172 274 8.77734 271.617 8.90234C269.234 9.02734 268.371 9.88672 267.742 10.1836C267.113 10.4805 264.496 11.168 263.207 10.7305C261.918 10.2969 258.734 13.332 257.512 13.2305C256.285 13.125 253.965 15.3047 253.172 15.6328C252.375 15.9609 251.277 17.3828 249.953 17.6445C248.633 17.9063 247.148 16.4766 247.148 16.4766L242.613 17.0234C242.613 17.0234 240 16.8516 239.012 16.1875C238.02 15.5195 234.383 15.375 234.383 15.375C234.383 15.375 234.383 15.375 233.559 13.8164C232.738 12.2578 231.645 12.8164 230.75 12.6484C229.859 12.4805 226.094 9.95312 226.094 9.95312L219.441 11.0898L217.484 12.5078L210.273 13.4141C210.273 13.4141 208.648 13.9062 208.117 14.6992C207.586 15.4922 204.438 17.832 204.438 17.832C204.438 17.832 202.383 18.7539 201.719 18.8828C201.059 19.0156 199.133 20.5977 199.133 20.5977C199.133 20.5977 195.797 20.2227 194.969 20.3867C194.141 20.5508 191.688 22.0664 191.688 22.0664L189.078 21.0312C189.078 21.0312 187.191 21.0586 186.035 21.2852C184.875 21.5117 183.059 20.1523 183.059 20.1523L179.32 20.3711L177.172 19.9336C177.172 19.9336 173.961 20.2188 172.707 19.9531C171.449 19.6836 170.027 19.4453 170.027 19.4453L167.188 18.9766L165.195 20.2266L162.98 20.3203C162.98 20.3203 158.48 20.1719 157.426 20.0391C156.367 19.9023 149.816 19.8125 149.816 19.8125C149.816 19.8125 149.379 19.6875 148.758 19.4922V14.2148C148.82 14.2305 148.859 14.2422 148.859 14.2422C148.859 14.2422 151.711 13.8906 153.629 14.0273C155.551 14.168 159.578 16.2969 161.496 16.4375C163.414 16.5742 168.547 14.707 170.203 14.3789C171.855 14.0508 173.438 15.9766 176.648 15.6875C179.859 15.4023 183.695 15.6797 187.105 14.6641C190.516 13.6484 189.289 14.4062 190.609 15.0039C191.934 15.6055 198.613 15.4922 200.102 15.1836C201.586 14.8711 204.777 11.8711 206.301 10.8789C207.828 9.89453 210.941 9.10937 213.355 9.14844C215.77 9.19141 217.461 7.30859 219.223 4.89453C220.984 2.48438 223.125 5.50391 225.441 5.04688C227.758 4.58984 227.105 8.16016 229.633 8.00781C232.16 7.85156 235.648 9.74609 237.531 10.582C239.414 11.4141 244.313 10.9687 246.332 10.7422C248.348 10.5156 250.859 11.0547 252.121 10.4609C253.379 9.86719 257.715 8.32422 259.238 8.19922C260.762 8.07031 263.941 5.89453 265.238 4.60938C266.531 3.32031 270.703 2.67188 272.688 2.28125C274.672 1.88672 278.582 0.773438 279.934 1.53906C281.289 2.30859 281.887 1.84375 283.902 1.61719C285.922 1.39453 286.484 1.62891 287.543 1.76172C288.227 1.85156 293.691 0.851563 298.168 0Z" fill="#FFFAEF"/>
<path d="M0 0.351562V4.75781C1.35156 4.62891 2.63281 6.34766 4.48828 5.90625C6.46484 5.44141 8.11719 6.62109 10.457 6.90625C12.793 7.19531 12.7617 8.21484 14.082 8.47266C15.3984 8.73437 17.9023 8.19922 19.2852 8.12891C20.668 8.05859 24.0625 9.07031 26.4336 9.19141C28.8047 9.31641 29.6641 10.168 30.2891 10.4609C30.918 10.7578 33.5234 11.4375 34.8047 11.0078C36.0859 10.5742 39.2578 13.5898 40.4766 13.4883C41.6953 13.3867 44.0078 15.5508 44.7969 15.875C45.5898 16.1992 46.6797 17.6133 47.9961 17.8711C49.3164 18.1289 50.793 16.7109 50.793 16.7109L55.3086 17.2539C55.3086 17.2539 57.9063 17.082 58.8945 16.4219C59.8789 15.7617 63.5 15.6172 63.5 15.6172C63.5 15.6172 63.5 15.6172 64.3203 14.0703C65.1406 12.5234 66.2266 13.0781 67.1172 12.9141C68.0039 12.7461 71.75 10.2344 71.75 10.2344L78.375 11.3633L80.3203 12.7734L87.5039 13.6719C87.5039 13.6719 89.1172 14.1602 89.6484 14.9453C90.1797 15.7344 93.3125 18.0586 93.3125 18.0586C93.3125 18.0586 95.3594 18.9727 96.0156 19.1016C96.6758 19.2305 98.5898 20.8008 98.5898 20.8008C98.5898 20.8008 101.914 20.4297 102.738 20.5938C103.563 20.7539 106.004 22.2578 106.004 22.2578L108.602 21.2305C108.602 21.2305 110.48 21.2578 111.633 21.4883C112.785 21.7109 114.594 20.3594 114.594 20.3594L118.316 20.5781L120.453 20.1445C120.453 20.1445 123.652 20.4297 124.902 20.1641C126.152 19.8945 127.566 19.6602 127.566 19.6602L130.398 19.1914L132.379 20.4336L134.582 20.5273C134.582 20.5273 139.063 20.3828 140.117 20.2461C141.168 20.1094 147.691 20.0234 147.691 20.0234C147.691 20.0234 148.125 19.8984 148.746 19.707V14.4648C148.68 14.4805 148.641 14.4922 148.641 14.4922C148.641 14.4922 145.801 14.1445 143.895 14.2812C141.98 14.418 137.973 16.5352 136.062 16.6719C134.152 16.8086 129.043 14.9531 127.395 14.6289C125.746 14.3047 124.172 16.2148 120.977 15.9297C117.781 15.6445 113.961 15.9219 110.566 14.9102C107.172 13.9023 108.391 14.6562 107.078 15.25C105.762 15.8438 99.1094 15.7344 97.6289 15.4258C96.1523 15.1172 92.9727 12.1367 91.457 11.1562C89.9375 10.1758 86.8398 9.39453 84.4336 9.4375C82.0312 9.47656 80.3477 7.60937 78.5938 5.21484C76.8398 2.81641 74.707 5.81641 72.4023 5.36328C70.0937 4.91016 70.7461 8.45703 68.2266 8.30078C65.7109 8.14844 62.2383 10.0312 60.3672 10.8594C58.4922 11.6875 53.6172 11.2422 51.6055 11.0195C49.5977 10.793 47.0977 11.3281 45.8438 10.7383C44.5898 10.1523 40.2695 8.62109 38.7539 8.49219C37.2422 8.36719 34.0703 6.20703 32.7812 4.92969C31.4961 3.65234 27.3438 3.00781 25.3672 2.61719C23.3906 2.22656 19.5 1.12109 18.1523 1.88281C16.8047 2.64453 16.2109 2.18359 14.1992 1.96094C12.1914 1.73828 11.6328 1.96875 10.5781 2.10156C9.89453 2.19141 4.45703 1.19922 0 0.351562Z" fill="#FFFAEF"/>
</svg>
