<svg width="275" height="307" viewBox="0 0 275 307" fill="none" xmlns="http://www.w3.org/2000/svg">
<g filter="url(#filter0_d_2_14793)">
<path d="M8 7.85156H270.246V295.641H8V7.85156Z" fill="#F2F2F2"/>
</g>
<path d="M19.8496 18.2548H258.398V256.904H19.8496V18.2548Z" fill="black" stroke="black" stroke-width="0.621244" stroke-linejoin="round"/>
<path d="M19.5391 17.9453H258.086C258.086 17.9453 220.484 66.7305 160.844 99.7656C101.207 132.797 19.5391 150.082 19.5391 150.082V17.9414V17.9453Z" fill="white" fill-opacity="0.196"/>
<g filter="url(#filter1_d_2_14793)">
<path d="M145.574 6.32422C145.574 6.73828 145.535 7.14844 145.457 7.55469C145.379 7.96094 145.262 8.35547 145.102 8.73828C144.946 9.12109 144.754 9.48828 144.524 9.83203C144.293 10.1758 144.035 10.4961 143.742 10.7891C143.449 11.0859 143.133 11.3477 142.789 11.5781C142.446 11.8086 142.082 12.0039 141.699 12.1602C141.317 12.3203 140.922 12.4414 140.516 12.5234C140.11 12.6016 139.699 12.6445 139.285 12.6445C138.871 12.6445 138.461 12.6016 138.055 12.5234C137.649 12.4414 137.254 12.3203 136.871 12.1602C136.489 12.0039 136.125 11.8086 135.782 11.5781C135.438 11.3477 135.121 11.0859 134.828 10.7891C134.535 10.4961 134.278 10.1758 134.047 9.83203C133.817 9.48828 133.625 9.12109 133.469 8.73828C133.313 8.35547 133.192 7.96094 133.114 7.55469C133.035 7.14844 132.996 6.73828 133 6.32422C132.996 5.91016 133.035 5.49609 133.114 5.08984C133.192 4.68359 133.313 4.28906 133.469 3.90625C133.625 3.52344 133.817 3.16016 134.047 2.8125C134.278 2.46875 134.535 2.14844 134.828 1.85547C135.121 1.5625 135.438 1.30078 135.782 1.06641C136.125 0.835937 136.489 0.640625 136.871 0.484375C137.254 0.324218 137.649 0.203126 138.055 0.125C138.461 0.042969 138.871 0 139.285 0C139.699 0 140.11 0.042969 140.516 0.125C140.922 0.203126 141.317 0.324218 141.699 0.484375C142.082 0.640625 142.446 0.835937 142.789 1.06641C143.133 1.30078 143.449 1.5625 143.742 1.85547C144.035 2.14844 144.293 2.46875 144.524 2.8125C144.754 3.16016 144.946 3.52344 145.102 3.90625C145.262 4.28906 145.379 4.68359 145.457 5.08984C145.535 5.49609 145.574 5.91016 145.574 6.32422Z" fill="#FF0000"/>
</g>
<defs>
<filter id="filter0_d_2_14793" x="0" y="6.85156" width="274.246" height="299.789" filterUnits="userSpaceOnUse" color-interpolation-filters="sRGB">
<feFlood flood-opacity="0" result="BackgroundImageFix"/>
<feColorMatrix in="SourceAlpha" type="matrix" values="0 0 0 0 0 0 0 0 0 0 0 0 0 0 0 0 0 0 127 0" result="hardAlpha"/>
<feOffset dx="-2" dy="5"/>
<feGaussianBlur stdDeviation="3"/>
<feComposite in2="hardAlpha" operator="out"/>
<feColorMatrix type="matrix" values="0 0 0 0 0 0 0 0 0 0 0 0 0 0 0 0 0 0 0.3 0"/>
<feBlend mode="normal" in2="BackgroundImageFix" result="effect1_dropShadow_2_14793"/>
<feBlend mode="normal" in="SourceGraphic" in2="effect1_dropShadow_2_14793" result="shape"/>
</filter>
<filter id="filter1_d_2_14793" x="129" y="0" width="20.5747" height="20.6445" filterUnits="userSpaceOnUse" color-interpolation-filters="sRGB">
<feFlood flood-opacity="0" result="BackgroundImageFix"/>
<feColorMatrix in="SourceAlpha" type="matrix" values="0 0 0 0 0 0 0 0 0 0 0 0 0 0 0 0 0 0 127 0" result="hardAlpha"/>
<feOffset dy="4"/>
<feGaussianBlur stdDeviation="2"/>
<feComposite in2="hardAlpha" operator="out"/>
<feColorMatrix type="matrix" values="0 0 0 0 0 0 0 0 0 0 0 0 0 0 0 0 0 0 0.9 0"/>
<feBlend mode="normal" in2="BackgroundImageFix" result="effect1_dropShadow_2_14793"/>
<feBlend mode="normal" in="SourceGraphic" in2="effect1_dropShadow_2_14793" result="shape"/>
</filter>
</defs>
</svg>
