<svg width="239" height="334" viewBox="0 0 239 334" fill="none" xmlns="http://www.w3.org/2000/svg">
<path d="M0 324.648V0H238.797V44.0586V56.5V65.375V299.711L190.551 307.449L164.477 318.715L143.828 318.188L136.02 314.398L127.629 313.281L124.371 309.574L115.637 307.449L107.43 313.812C107.43 313.812 94.9883 316.594 94.5898 316.727C94.1953 316.859 80.957 324.816 80.957 324.816L52.6367 325.605L32.25 323.488L24.0469 326.145C24.0469 326.145 14.2539 326.008 13.8516 326.137C13.5664 326.234 4.99219 325.215 0 324.648Z" fill="#FDF4ED"/>
<path d="M238.797 298.727V305.82C236.625 305.613 234.57 308.375 231.586 307.668C228.414 306.918 225.762 308.816 222.008 309.281C218.254 309.746 218.301 311.387 216.188 311.801C214.07 312.219 210.055 311.359 207.836 311.246C205.613 311.133 200.164 312.758 196.359 312.961C192.551 313.156 191.172 314.531 190.164 315.004C189.16 315.477 184.977 316.574 182.918 315.883C180.859 315.184 175.77 320.043 173.812 319.875C171.855 319.711 168.145 323.195 166.875 323.719C165.605 324.242 163.855 326.516 161.738 326.93C159.621 327.348 157.25 325.062 157.25 325.062L150.004 325.941C150.004 325.941 145.828 325.664 144.246 324.602C142.664 323.539 136.848 323.305 136.848 323.305C136.848 323.305 136.848 323.305 135.531 320.812C134.219 318.32 132.473 319.215 131.047 318.949C129.621 318.68 123.605 314.637 123.605 314.637L112.973 316.457L109.848 318.723L98.3164 320.168C98.3164 320.168 95.7227 320.953 94.875 322.223C94.0234 323.492 88.9922 327.234 88.9922 327.234C88.9922 327.234 85.707 328.703 84.6484 328.914C83.5898 329.121 80.5156 331.652 80.5156 331.652C80.5156 331.652 75.1797 331.055 73.8594 331.312C72.5352 331.578 68.6133 334 68.6133 334L64.4414 332.344C64.4414 332.344 61.4297 332.391 59.5781 332.754C57.7266 333.117 54.8242 330.938 54.8242 330.938L48.8477 331.289L45.418 330.59C45.418 330.59 40.2852 331.051 38.2773 330.621C36.2695 330.191 33.9961 329.812 33.9961 329.812L29.457 329.059L26.2773 331.062L22.7344 331.211C22.7344 331.211 15.543 330.977 13.8516 330.758C12.1641 330.539 1.69531 330.402 1.69531 330.402C1.69531 330.402 1 330.195 0 329.887V321.449C0.105469 321.473 0.164062 321.492 0.164062 321.492C0.164062 321.492 4.72656 320.93 7.78906 321.148C10.8555 321.371 17.2969 324.781 20.3594 325C23.4258 325.223 31.6328 322.234 34.2773 321.711C36.9219 321.191 39.4492 324.27 44.5781 323.809C49.707 323.348 55.8398 323.789 61.2891 322.164C66.7422 320.543 64.7812 321.754 66.8906 322.715C69.0039 323.672 79.6836 323.492 82.0586 322.996C84.4336 322.496 89.5352 317.699 91.9727 316.121C94.4102 314.539 99.3828 313.285 103.242 313.352C107.102 313.418 109.809 310.406 112.621 306.551C115.434 302.695 118.855 307.523 122.559 306.793C126.262 306.062 125.219 311.773 129.262 311.523C133.301 311.277 138.875 314.309 141.883 315.641C144.891 316.977 152.719 316.258 155.945 315.898C159.172 315.535 163.184 316.395 165.199 315.449C167.211 314.5 174.141 312.035 176.574 311.832C179.008 311.629 184.094 308.148 186.164 306.09C188.23 304.035 194.895 302.996 198.07 302.371C201.242 301.746 207.488 299.965 209.652 301.188C211.816 302.414 212.77 301.676 215.996 301.312C219.223 300.953 220.117 301.328 221.809 301.543C222.906 301.687 231.641 300.09 238.797 298.727Z" fill="#FFFAEF"/>
</svg>
