<svg width="163" height="17" viewBox="0 0 163 17" fill="none" xmlns="http://www.w3.org/2000/svg">
<path d="M148.863 2.22656L162.324 2.34766C162.633 2.34766 162.879 2.59375 162.879 2.90625C162.879 3.02734 162.816 3.08984 162.816 3.21484L156.023 14.4531C155.84 14.7031 155.531 14.7617 155.285 14.6406C155.16 14.5781 155.035 14.3906 155.035 14.2695L154.051 7.66016L148.555 3.27344C148.309 3.08984 148.309 2.71875 148.492 2.53516C148.492 2.28516 148.676 2.22656 148.863 2.22656ZM161.336 3.39844L150.344 3.33594L154.789 6.85547C154.914 6.91797 154.977 7.04297 154.977 7.22656L155.777 12.5391L161.336 3.39844ZM154.789 7.78516C154.543 7.90625 154.172 7.84375 154.051 7.59766C153.926 7.35156 153.988 6.98047 154.234 6.85547L162.074 2.41016C162.324 2.28516 162.691 2.34766 162.816 2.59375C162.941 2.84375 162.879 3.21484 162.633 3.33594L154.789 7.78516ZM2.77734 3.83203H3.89062L4.69141 2.03906C4.75391 1.85547 5 1.73047 5.1875 1.73047C6.66797 1.73047 8.08984 1.73047 9.57031 1.73047C9.81641 1.73047 10.0039 1.91797 10.0625 2.10156L10.8047 3.89062H11.918C12.6562 3.89062 13.3984 4.20313 13.8906 4.69531C14.3867 5.19141 14.6953 5.86719 14.6953 6.67188V12.1055C14.6953 12.8477 14.3867 13.5898 13.8906 14.082C13.3984 14.5781 12.7187 14.8867 11.918 14.8867H2.77734C2.03906 14.8867 1.29688 14.5781 0.800781 14.082C0.308593 13.5898 0 12.9102 0 12.1055V6.67188C0 5.92969 0.308593 5.19141 0.800781 4.69531C1.29688 4.20313 2.03906 3.83203 2.77734 3.83203ZM4.26172 4.94141H2.77734C2.34766 4.94141 1.91406 5.12891 1.60547 5.4375C1.29688 5.74609 1.11328 6.17969 1.11328 6.60938V12.0469C1.11328 12.4766 1.29688 12.9102 1.60547 13.2188C1.91406 13.5273 2.34766 13.7148 2.77734 13.7148H11.918C12.3477 13.7148 12.7812 13.5273 13.0898 13.2188C13.3984 12.9102 13.582 12.4766 13.582 12.0469V6.60938C13.582 6.17969 13.3984 5.74609 13.0898 5.4375C12.7812 5.12891 12.3477 4.94141 11.918 4.94141H10.4336C10.25 4.94141 10.0039 4.82031 9.94141 4.63281L9.13672 2.84375H5.49609L4.75391 4.63281C4.69141 4.82031 4.50781 4.94141 4.26172 4.94141ZM7.34766 5.375C8.33594 5.375 9.19922 5.74609 9.81641 6.42578C10.4336 7.04297 10.8672 7.90625 10.8672 8.89453C10.8672 9.88281 10.4961 10.75 9.81641 11.3672C9.19922 11.9844 8.33594 12.418 7.34766 12.418C6.35938 12.418 5.49609 12.0469 4.87891 11.3672C4.26172 10.75 3.82812 9.88281 3.82812 8.89453C3.82812 7.90625 4.19922 7.04297 4.87891 6.42578C5.49609 5.80859 6.35938 5.375 7.34766 5.375ZM9.01562 7.16797C8.58203 6.73437 7.96484 6.48828 7.34766 6.48828C6.66797 6.48828 6.11328 6.73437 5.67969 7.16797C5.25 7.59766 5 8.21484 5 8.83203C5 9.51172 5.25 10.0703 5.67969 10.5C6.11328 10.9336 6.73047 11.1797 7.34766 11.1797C8.02734 11.1797 8.58203 10.9336 9.01562 10.5C9.44531 10.0703 9.69531 9.45313 9.69531 8.83203C9.69531 8.21484 9.44531 7.59766 9.01562 7.16797ZM130.031 1.11328C128.117 1.11328 126.387 1.91797 125.09 3.15234C123.855 4.38672 123.055 6.17969 123.055 8.09375C123.055 10.0078 123.855 11.7383 125.09 13.0352C126.328 14.2695 128.117 15.0703 130.031 15.0703C131.945 15.0703 133.672 14.2695 134.969 13.0352C136.207 11.7969 137.008 10.0078 137.008 8.09375C137.008 6.17969 136.207 4.44922 134.969 3.15234C133.672 1.85547 131.945 1.11328 130.031 1.11328ZM124.352 2.34766C125.832 0.867188 127.809 0 130.031 0C132.254 0 134.293 0.929688 135.711 2.34766C137.191 3.83203 138.059 5.80859 138.059 8.03125C138.059 10.2539 137.133 12.293 135.711 13.7148C134.23 15.1953 132.254 16.0586 130.031 16.0586C127.809 16.0586 125.77 15.1328 124.352 13.7148C122.867 12.2305 122.004 10.2539 122.004 8.03125C121.941 5.80859 122.867 3.83203 124.352 2.34766ZM128.672 4.07812H131.637C132.316 4.07812 132.996 4.38672 133.488 4.82031C133.98 5.3125 134.23 5.92969 134.23 6.67188V9.88281C134.23 10.5625 133.922 11.2422 133.488 11.7383C132.996 12.2305 132.379 12.4766 131.637 12.4766H128.672C127.992 12.4766 127.312 12.168 126.82 11.7383C126.328 11.2422 126.078 10.625 126.078 9.88281V6.67188C126.078 5.99219 126.387 5.3125 126.82 4.82031C127.312 4.38672 127.992 4.07812 128.672 4.07812ZM131.637 5.19141H128.672C128.242 5.19141 127.871 5.375 127.621 5.62109C127.375 5.86719 127.191 6.23828 127.191 6.67188V9.88281C127.191 10.3164 127.375 10.6875 127.621 10.9336C127.871 11.1797 128.242 11.3672 128.672 11.3672H131.637C132.066 11.3672 132.438 11.1797 132.688 10.9336C132.934 10.6875 133.117 10.3164 133.117 9.88281V6.67188C133.117 6.23828 132.934 5.86719 132.688 5.62109C132.438 5.3125 132.066 5.19141 131.637 5.19141ZM128.301 3.39844C128.117 3.15234 128.242 2.78125 128.488 2.65625C128.734 2.47266 129.105 2.59375 129.227 2.84375L130.215 4.38672C130.402 4.63281 130.277 5.00391 130.031 5.12891C129.785 5.3125 129.414 5.19141 129.289 4.94141C129.289 4.87891 128.301 3.39844 128.301 3.39844ZM130.832 2.78125C131.02 2.53516 131.328 2.47266 131.574 2.59375C131.82 2.78125 131.883 3.08984 131.758 3.33594L130.773 4.87891C130.586 5.12891 130.277 5.19141 130.031 5.06641C129.785 4.87891 129.723 4.57031 129.844 4.32422L130.832 2.78125ZM128.426 9.08203C128.117 9.20313 127.809 9.08203 127.684 8.77344C127.562 8.46484 127.684 8.15234 127.992 8.03125L129.785 7.28906C130.094 7.16797 130.402 7.28906 130.523 7.59766L130.711 8.03125L131.945 7.59766C132.254 7.47656 132.562 7.66016 132.625 7.96875C132.746 8.27734 132.562 8.58594 132.254 8.64844L130.523 9.26562C130.277 9.32812 129.969 9.20313 129.844 8.95703L129.66 8.58594L128.426 9.08203Z" fill="#443028"/>
</svg>
