<svg xmlns="http://www.w3.org/2000/svg" xmlns:xlink="http://www.w3.org/1999/xlink" width="435" zoomAndPan="magnify" viewBox="0 0 326.25 135.000003" height="180" preserveAspectRatio="xMidYMid meet" version="1.0"><defs><g/></defs><path fill="#f1b0ce" d="M 14.210938 113.4375 L 14.210938 20.570312 C 14.210938 10.980469 21.980469 3.207031 31.558594 3.207031 L 293.707031 3.207031 C 303.289062 3.207031 311.054688 10.980469 311.054688 20.570312 L 311.054688 113.4375 C 311.054688 123.023438 303.289062 130.796875 293.707031 130.796875 L 31.558594 130.796875 C 21.980469 130.796875 14.210938 123.023438 14.210938 113.4375 " fill-opacity="1" fill-rule="nonzero"/><g fill="#fffaef" fill-opacity="1"><g transform="translate(40.009755, 49.903595)"><g/></g></g><g fill="#fffaef" fill-opacity="1"><g transform="translate(50.857623, 49.903595)"><g><path d="M 11.046875 0 L 7.4375 0 L 1.984375 -5.421875 L 1.984375 -21.75 L 7.4375 -27.1875 L 11.046875 -27.1875 Z M 12.46875 -21.75 L 12.46875 -27.1875 L 22.125 -27.1875 L 27.546875 -21.75 L 27.546875 -16.28125 L 18.5 -16.28125 L 18.5 -21.75 Z M 12.46875 0 L 12.46875 -5.421875 L 18.5 -5.421875 L 18.5 -9.40625 L 27.546875 -9.40625 L 27.546875 -5.421875 L 22.125 0 Z M 12.46875 0 "/></g></g></g><g fill="#fffaef" fill-opacity="1"><g transform="translate(80.352769, 49.903595)"><g><path d="M 25.53125 -21.75 L 25.53125 0 L 16.46875 0 L 16.46875 -21.75 Z M 11 -5.421875 L 15.03125 -5.421875 L 15.03125 -2.71875 L 12.40625 0 L 7.390625 0 L 1.953125 -5.421875 L 1.953125 -21.75 L 11 -21.75 Z M 11 -5.421875 "/></g></g></g><g fill="#fffaef" fill-opacity="1"><g transform="translate(108.004469, 49.903595)"><g><path d="M 16.484375 -16.328125 L 12.640625 -16.328125 L 12.640625 -18.703125 L 15.671875 -21.75 L 21.15625 -21.75 L 25.5625 -16.671875 L 25.5625 -11.046875 L 16.484375 -11.046875 Z M 2.125 0 L 2.125 -21.75 L 11.1875 -21.75 L 11.1875 0 Z M 2.125 0 "/></g></g></g><g fill="#fffaef" fill-opacity="1"><g transform="translate(134.222377, 49.903595)"><g><path d="M 16.484375 -16.328125 L 12.640625 -16.328125 L 12.640625 -18.703125 L 15.671875 -21.75 L 21.15625 -21.75 L 25.5625 -16.671875 L 25.5625 -11.046875 L 16.484375 -11.046875 Z M 2.125 0 L 2.125 -21.75 L 11.1875 -21.75 L 11.1875 0 Z M 2.125 0 "/></g></g></g><g fill="#fffaef" fill-opacity="1"><g transform="translate(160.440285, 49.903595)"><g><path d="M 11 0 L 7.375 0 L 1.953125 -5.421875 L 1.953125 -16.328125 L 7.375 -21.75 L 11 -21.75 Z M 12.4375 -8.734375 L 12.4375 -12.515625 L 17.203125 -12.515625 L 17.203125 -16.328125 L 12.4375 -16.328125 L 12.4375 -21.75 L 20.109375 -21.75 L 25.546875 -16.328125 L 25.546875 -8.734375 Z M 12.4375 0 L 12.4375 -5.078125 L 24.609375 -5.078125 L 24.609375 -2.71875 L 21.890625 0 Z M 12.4375 0 "/></g></g></g><g fill="#fffaef" fill-opacity="1"><g transform="translate(187.702818, 49.903595)"><g><path d="M 2.125 0 L 2.125 -21.75 L 11.265625 -21.75 L 11.265625 0 Z M 16.640625 -16.328125 L 12.734375 -16.328125 L 12.734375 -18.703125 L 15.765625 -21.75 L 20.8125 -21.75 L 25.703125 -16.859375 L 25.703125 0 L 16.640625 0 Z M 16.640625 -16.328125 "/></g></g></g><g fill="#fffaef" fill-opacity="1"><g transform="translate(215.477415, 49.903595)"><g><path d="M 11.4375 -5.421875 L 17.40625 -5.421875 L 17.40625 0 L 7.828125 0 L 2.375 -5.421875 L 2.375 -16.328125 L 0.578125 -16.328125 L 0.578125 -21.75 L 2.375 -21.75 L 2.375 -24.109375 L 11.4375 -27.1875 Z M 12.859375 -16.328125 L 12.859375 -21.75 L 17.734375 -21.75 L 17.734375 -16.328125 Z M 12.859375 -16.328125 "/></g></g></g><g fill="#fffaef" fill-opacity="1"><g transform="translate(234.219117, 49.903595)"><g><path d="M 15.234375 0 L 7.203125 0 L 2.125 -5.078125 L 2.125 -30.046875 L 11.1875 -30.046875 L 11.1875 -5.421875 L 15.234375 -5.421875 Z M 15.234375 0 "/></g></g></g><g fill="#fffaef" fill-opacity="1"><g transform="translate(249.642636, 49.903595)"><g><path d="M 14.25 7.578125 L 5.578125 7.578125 L 16.59375 -21.75 L 25.296875 -21.75 Z M -0.28125 -21.75 L 8.75 -21.75 L 11.796875 -12.90625 L 7.75 -1.828125 Z M -0.28125 -21.75 "/></g></g></g><g fill="#fffaef" fill-opacity="1"><g transform="translate(274.644334, 49.903595)"><g/></g></g><g fill="#fffaef" fill-opacity="1"><g transform="translate(30.989458, 108.043893)"><g><path d="M 28.4375 -5.421875 L 23 0 L 16.015625 0 L 16.015625 -5.421875 L 19.375 -5.421875 L 19.375 -27.1875 L 28.4375 -27.1875 Z M 11.25 -5.421875 L 14.578125 -5.421875 L 14.578125 0 L 7.625 0 L 2.171875 -5.421875 L 2.171875 -27.1875 L 11.25 -27.1875 Z M 11.25 -5.421875 "/></g></g></g><g fill="#fffaef" fill-opacity="1"><g transform="translate(61.611161, 108.043893)"><g><path d="M 2.125 0 L 2.125 -21.75 L 11.265625 -21.75 L 11.265625 0 Z M 16.640625 -16.328125 L 12.734375 -16.328125 L 12.734375 -18.703125 L 15.765625 -21.75 L 20.8125 -21.75 L 25.703125 -16.859375 L 25.703125 0 L 16.640625 0 Z M 16.640625 -16.328125 "/></g></g></g><g fill="#fffaef" fill-opacity="1"><g transform="translate(89.385757, 108.043893)"><g><path d="M 16.46875 0 L 16.46875 -16.328125 L 3.578125 -16.328125 L 3.578125 -19.03125 L 6.3125 -21.75 L 19.890625 -21.75 L 25.3125 -16.328125 L 25.3125 0 Z M 15.03125 -12.65625 L 15.03125 -8.890625 L 10.359375 -8.890625 L 10.359375 -5.078125 L 15.03125 -5.078125 L 15.03125 -2.6875 L 12.328125 0 L 5.40625 0 L 1.765625 -3.578125 L 1.765625 -9.03125 L 5.40625 -12.65625 Z M 15.03125 -12.65625 "/></g></g></g><g fill="#fffaef" fill-opacity="1"><g transform="translate(116.648291, 108.043893)"><g><path d="M -0.28125 -21.75 L 8.703125 -21.75 L 16.453125 0 L 7.84375 0 Z M 17.375 -1.203125 L 13.3125 -12.71875 L 16.25 -21.75 L 24.703125 -21.75 Z M 17.375 -1.203125 "/></g></g></g><g fill="#fffaef" fill-opacity="1"><g transform="translate(141.063717, 108.043893)"><g><path d="M 16.46875 0 L 16.46875 -16.328125 L 3.578125 -16.328125 L 3.578125 -19.03125 L 6.3125 -21.75 L 19.890625 -21.75 L 25.3125 -16.328125 L 25.3125 0 Z M 15.03125 -12.65625 L 15.03125 -8.890625 L 10.359375 -8.890625 L 10.359375 -5.078125 L 15.03125 -5.078125 L 15.03125 -2.6875 L 12.328125 0 L 5.40625 0 L 1.765625 -3.578125 L 1.765625 -9.03125 L 5.40625 -12.65625 Z M 15.03125 -12.65625 "/></g></g></g><g fill="#fffaef" fill-opacity="1"><g transform="translate(168.32625, 108.043893)"><g><path d="M 2.15625 -21.75 L 11.21875 -21.75 L 11.21875 0 L 2.15625 0 Z M 2.15625 -30.234375 L 11.21875 -30.234375 L 11.21875 -24.453125 L 2.15625 -24.453125 Z M 2.15625 -30.234375 "/></g></g></g><g fill="#fffaef" fill-opacity="1"><g transform="translate(181.701485, 108.043893)"><g><path d="M 15.234375 0 L 7.203125 0 L 2.125 -5.078125 L 2.125 -30.046875 L 11.1875 -30.046875 L 11.1875 -5.421875 L 15.234375 -5.421875 Z M 15.234375 0 "/></g></g></g><g fill="#fffaef" fill-opacity="1"><g transform="translate(197.124994, 108.043893)"><g><path d="M 16.46875 0 L 16.46875 -16.328125 L 3.578125 -16.328125 L 3.578125 -19.03125 L 6.3125 -21.75 L 19.890625 -21.75 L 25.3125 -16.328125 L 25.3125 0 Z M 15.03125 -12.65625 L 15.03125 -8.890625 L 10.359375 -8.890625 L 10.359375 -5.078125 L 15.03125 -5.078125 L 15.03125 -2.6875 L 12.328125 0 L 5.40625 0 L 1.765625 -3.578125 L 1.765625 -9.03125 L 5.40625 -12.65625 Z M 15.03125 -12.65625 "/></g></g></g><g fill="#fffaef" fill-opacity="1"><g transform="translate(224.387527, 108.043893)"><g><path d="M 11.1875 -30.046875 L 11.1875 0 L 2.125 0 L 2.125 -30.046875 Z M 16.671875 -16.328125 L 12.625 -16.328125 L 12.625 -19.078125 L 15.28125 -21.75 L 20.234375 -21.75 L 25.6875 -16.328125 L 25.6875 -5.421875 L 20.234375 0 L 12.625 0 L 12.625 -5.078125 L 16.671875 -5.078125 Z M 16.671875 -16.328125 "/></g></g></g><g fill="#fffaef" fill-opacity="1"><g transform="translate(251.8344, 108.043893)"><g><path d="M 15.234375 0 L 7.203125 0 L 2.125 -5.078125 L 2.125 -30.046875 L 11.1875 -30.046875 L 11.1875 -5.421875 L 15.234375 -5.421875 Z M 15.234375 0 "/></g></g></g><g fill="#fffaef" fill-opacity="1"><g transform="translate(267.257899, 108.043893)"><g><path d="M 11 0 L 7.375 0 L 1.953125 -5.421875 L 1.953125 -16.328125 L 7.375 -21.75 L 11 -21.75 Z M 12.4375 -8.734375 L 12.4375 -12.515625 L 17.203125 -12.515625 L 17.203125 -16.328125 L 12.4375 -16.328125 L 12.4375 -21.75 L 20.109375 -21.75 L 25.546875 -16.328125 L 25.546875 -8.734375 Z M 12.4375 0 L 12.4375 -5.078125 L 24.609375 -5.078125 L 24.609375 -2.71875 L 21.890625 0 Z M 12.4375 0 "/></g></g></g></svg>